# Blender 4.5.3 LTS
# www.blender.org
mtllib cube.mtl
o Cube
v -0.500000 0.000000 0.500000
v -0.500000 1.000000 0.500000
v -0.500000 0.000000 -0.500000
v -0.500000 1.000000 -0.500000
v 0.500000 0.000000 0.500000
v 0.500000 1.000000 0.500000
v 0.500000 0.000000 -0.500000
v 0.500000 1.000000 -0.500000
vn -1.0000 -0.0000 -0.0000
vn -0.0000 -0.0000 -1.0000
vn 1.0000 -0.0000 -0.0000
vn -0.0000 -0.0000 1.0000
vn -0.0000 -1.0000 -0.0000
vn -0.0000 1.0000 -0.0000
vt 0.020878 -1.919339
vt 0.991020 -1.917811
vt 0.989491 -0.947669
vt 0.019350 -0.949197
vt 0.987963 0.022473
vt 0.017822 0.020944
vt 0.986435 0.992614
vt 0.016293 0.991086
vt 0.984907 1.962756
vt 0.014765 1.961228
vt -0.952320 0.019416
vt -0.953849 0.989558
vt 1.958105 0.024001
vt 1.956577 0.994142
s 0
usemtl cubeMat
f 1/1/1 2/2/1 4/3/1 3/4/1
f 3/4/2 4/3/2 8/5/2 7/6/2
f 7/6/3 8/5/3 6/7/3 5/8/3
f 5/8/4 6/7/4 2/9/4 1/10/4
f 3/11/5 7/6/5 5/8/5 1/12/5
f 8/5/6 4/13/6 2/14/6 6/7/6
